<svg width="32" height="32" viewBox="0 0 32 32" fill="none" xmlns="http://www.w3.org/2000/svg">
<path fill-rule="evenodd" clip-rule="evenodd" d="M25.7166 11.2552L30.8518 14.0616C32.3821 14.9002 32.3821 17.0961 30.8555 17.931L25.7203 20.7411C23.6198 21.8887 21.8946 23.6175 20.7469 25.714L17.9402 30.8524C17.1015 32.3825 14.9054 32.3825 14.0667 30.8524L11.2563 25.7177C10.1086 23.6175 8.37969 21.8924 6.28293 20.7448L1.1477 17.9347C-0.382567 17.0961 -0.382567 14.9002 1.1477 14.0616L6.28293 11.2552C8.38337 10.1076 10.1086 8.37885 11.2563 6.2823L14.063 1.14759C14.9017 -0.382529 17.0978 -0.382529 17.9365 1.14759L20.7432 6.2823C21.8909 8.38253 23.6198 10.1076 25.7166 11.2552ZM18.1352 18.869H19.2387V13.131H18.3264L16.0016 16.5775L13.6768 13.131H12.7608V18.869H13.8644V15.3821L15.5492 17.8611H16.4688L18.1352 15.3821V15.7756V17.6846V18.869ZM23.4672 3.02728L23.5113 3.45399L20.8775 4.22648L19.5569 1.81336L19.888 1.54483C21.249 0.452307 23.2796 1.29101 23.4672 3.02728ZM5.21643 10.5788L5.75344 10.2845C7.66976 9.23624 9.23666 7.66935 10.2849 5.75302L10.5792 5.21601L6.86792 4.12728C5.19436 3.63808 3.6385 5.19027 4.13137 6.86383L5.21643 10.5788ZM26.7802 21.4179L26.2432 21.7121C24.3269 22.7604 22.76 24.3273 21.7117 26.2436L21.4175 26.7806L25.1287 27.8694C26.8023 28.3586 28.3582 26.8064 27.8653 25.1328L26.7802 21.4179ZM26.2439 10.284C24.3276 9.23574 22.7607 7.66885 21.7124 5.75252L21.4219 5.21919L25.1331 4.13046C26.8067 3.63758 28.3589 5.19344 27.8697 6.86701L26.781 10.5783L26.2439 10.284ZM10.2844 26.2436C9.23615 24.3273 7.66925 22.7604 5.75293 21.7121L5.21592 21.4179L4.12719 25.1291C3.63799 26.8027 5.19017 28.3586 6.86374 27.8657L10.575 26.777L10.2844 26.2436ZM12.4399 1.81704L12.1015 1.54483C10.7404 0.452307 8.70987 1.29101 8.52226 3.02728L8.47812 3.45031L11.123 4.22648L12.4399 1.81704ZM4.22653 11.123L1.80238 12.4472L1.53384 12.1125C0.44132 10.7514 1.28003 8.72088 3.01629 8.53328L3.45404 8.48914L4.22653 11.123ZM1.80902 19.5568L1.52945 19.9025C0.436926 21.2636 1.27563 23.2942 3.0119 23.4818L3.44596 23.5296L4.22213 20.881L1.80902 19.5568ZM27.7706 20.8737L30.1801 19.5568L30.456 19.8952C31.5485 21.2562 30.7098 23.2868 28.9735 23.4744L28.5468 23.5222L27.7706 20.8737ZM30.1911 12.4437L30.456 12.1126C31.5485 10.7515 30.7098 8.72099 28.9735 8.53339L28.5431 8.48557L27.7706 11.1194L30.1911 12.4437ZM19.8878 30.4665L19.5494 30.1943L20.8773 27.7701L23.5148 28.5426L23.467 28.9841C23.2794 30.7203 21.2489 31.559 19.8878 30.4665ZM8.47501 28.5462L8.52283 28.984C8.71043 30.7203 10.741 31.559 12.102 30.4664L12.4478 30.1905L11.1235 27.7737L8.47501 28.5462Z" fill="white"/>
</svg>
