<svg width="50" height="50" viewBox="0 0 50 50" fill="none" xmlns="http://www.w3.org/2000/svg">
<path d="M41.8442 33.4658L41.0051 33.9256C38.0109 35.5635 35.5626 38.0118 33.9247 41.006L33.4649 41.8451L39.2638 43.5463C41.8787 44.3106 44.3097 41.8854 43.5396 39.2704L41.8442 33.4658Z" fill="#5A4FFF"/>
<path d="M8.15041 16.5292L8.98949 16.0694C11.9837 14.4315 14.432 11.9832 16.07 8.98893L16.5297 8.14985L10.7309 6.4487C8.11593 5.68433 5.6849 8.10962 6.45501 10.7246L8.15041 16.5292Z" fill="#5A4FFF"/>
<path d="M33.9253 8.98876C35.5632 11.983 38.0115 14.4313 41.0057 16.0692L41.8448 16.529L43.546 10.7301C44.3103 8.1152 41.885 5.68416 39.2701 6.45428L33.4713 8.15543L33.9253 8.98876Z" fill="#5A4FFF"/>
<path d="M16.0693 41.0061C14.4313 38.0118 11.9831 35.5635 8.98881 33.9256L8.14973 33.4658L6.44858 39.2647C5.68421 41.8796 8.1095 44.3106 10.7244 43.5405L16.5233 41.8394L16.0693 41.0061Z" fill="#5A4FFF"/>
<path d="M36.7363 5.39725L36.6673 4.73052C36.3742 2.0176 33.2014 0.707122 31.0748 2.41419L30.5575 2.83377L32.6209 6.60427L36.7363 5.39725Z" fill="#5A4FFF"/>
<path d="M19.437 2.83952L18.9082 2.41419C16.7815 0.707122 13.6088 2.0176 13.3157 4.73052L13.2467 5.3915L17.3793 6.60427L19.437 2.83952Z" fill="#5A4FFF"/>
<path d="M2.81601 19.4492L6.60375 17.38L5.39673 13.2646L4.71275 13.3336C1.99984 13.6268 0.689361 16.7995 2.39643 18.9261L2.81601 19.4492Z" fill="#5A4FFF"/>
<path d="M2.82691 30.5576L2.39008 31.0979C0.683013 33.2246 1.99349 36.3973 4.70641 36.6904L5.38463 36.7651L6.5974 32.6268L2.82691 30.5576Z" fill="#5A4FFF"/>
<path d="M47.1559 30.5576L43.3911 32.6153L44.6039 36.7536L45.2706 36.6789C47.9835 36.3858 49.294 33.2131 47.5869 31.0864L47.1559 30.5576Z" fill="#5A4FFF"/>
<path d="M47.1731 19.4433L47.5869 18.926C49.294 16.7994 47.9835 13.6266 45.2706 13.3335L44.5981 13.2588L43.3911 17.3741L47.1731 19.4433Z" fill="#5A4FFF"/>
<path d="M30.5463 47.1784L31.0751 47.6037C33.2017 49.3108 36.3744 48.0003 36.6676 45.2874L36.7423 44.5976L32.6212 43.3906L30.5463 47.1784Z" fill="#5A4FFF"/>
<path d="M13.2418 44.6035L13.3165 45.2875C13.6097 48.0004 16.7824 49.3109 18.9091 47.6038L19.4493 47.1727L17.3802 43.3965L13.2418 44.6035Z" fill="#5A4FFF"/>
<path d="M48.206 21.9713L40.1822 17.5862C36.906 15.7931 34.2046 13.0977 32.4113 9.81609L28.0258 1.7931C26.7153 -0.597701 23.2839 -0.597701 21.9735 1.7931L17.588 9.81609C15.7947 13.092 13.099 15.7931 9.81708 17.5862L1.79328 21.9713C-0.597761 23.2816 -0.597761 26.7126 1.79328 28.023L9.81708 32.4138C13.0933 34.2069 15.7947 36.9023 17.588 40.1839L21.9792 48.2069C23.2897 50.5977 26.7211 50.5977 28.0316 48.2069L32.4171 40.1782C34.2103 36.9023 36.906 34.2011 40.188 32.408L48.2117 28.0172C50.597 26.7126 50.597 23.2816 48.206 21.9713ZM30.0605 29.4828H28.3362V27.6322V24.6494V24.0345L25.7325 27.908H24.2955L21.6631 24.0345V29.4828H19.9388V20.5172H21.37L25.0025 25.9023L28.6351 20.5172H30.0605V29.4828Z" fill="#5A4FFF"/>
</svg>
